name processed_emg_signals
 datacolumns 36
 datarows 8
 range 0.000752 0.0077519999999999985 
 endheader
time	FP1_FX	FP1_FY	FP1_FZ	FP1_MX	FP1_MY	FP1_MZ	LIXO	FP2_FX34	FP2_FY14	FP2_FY23	FP2_FZ1	FP2_FZ2	FP2_FZ3	FP2_FZ4	FP3_FX12	FP3_FX34	FP3_FY14	FP3_FY23	FP3_FZ1	FP3_FZ2	FP3_FZ3	FP3_FZ4	LGLTMED	LRF	LADDLONG	LBF	LTA	LGM	RGLTMED	RRF	RADDLONG	RBF	RTA	RGM	FP2_FX12
0.000752	-0.4997328855097294	-0.4692148417234421	-0.179293449036777	-0.2403295366093516	-0.2555885585024953	0.2174411201849579	0.0123598054051399	0.1369402339705061	-3.157714883684548	0.8433652239077105	-1.3907957686282657	0.1192117241834012	2.503434081254454	-0.1192105115237041	0.4771689094749831	0.0622396982454631	-3.873268287698693	-0.9320696992342904	-0.8218497538945257	-0.6653068298851395	-0.2739495198616737	-0.6653068298851395	-0.0041199382394552	-0.0035095773637294	-0.0099183665588498	0.0041199335828423	-0.0267032906413078	-0.0199893210083246	-0.0157167948782444	-0.0331120789051055	-0.0172426961362361	0.0157167911529541	-0.0566109716892242	0.0135805271565914	-1.4672132958173023
0.0017519999999999997	-0.5149919539690018	-0.3929197788238525	-0.133516383357346	-0.3318836679682135	-0.3166246460750699	0.2174411201849579	0.0138857075944542	0.2934430173644387	-3.236167434813808	1.4709856329417903	-2.0265883971805465	-0.2781586686617743	2.265011845547349	0.4371080384595416	0.3526901461061271	-0.0622390651233928	-3.7904178725101474	-1.1391963692964424	-0.3522209818663668	-0.5870353678804463	-0.43049244387106	-0.0391351338475942	0.0328068956732749	-0.0016784947365522	0.009613181464374	0.0019836705178022	-0.0187685992568731	-0.0148012535646557	-0.006866562180221	-0.0135805318132042	-0.0291447341442108	0.0032043922692537	-0.011749449186027	-0.009308005683124	-1.5063389916657854
0.0027519999999999997	-0.4615853540599346	-0.4310673102736473	-0.1716639380902052	-0.2708475803956389	-0.2555885585024953	0.1792935654520988	0.012054624967277	0.6064485841523037	-3.2753938300857044	1.0002703261662305	-1.3907957686282657	0.1192117241834012	2.265011845547349	-0.1986845900927392	0.0622396982454631	-0.3941824341070088	-3.997544416154142	-1.0149203672591511	-0.5870353678804463	-0.978392677903912	-0.2739495198616737	-0.1174065958522874	0.0526436232030391	-0.0151064340025186	-0.0108339078724384	-0.0041199382394552	0.0059510162100195	0.0053406553342938	-0.0239566676318645	-0.0270084701478481	-0.0279240123927593	-0.0053406599909067	0.0056458357721567	0.0270084664225578	-2.014973157096392
0.0037519999999999993	-0.4692148417234421	-0.4234378226101398	-0.1716639380902052	-0.3013656241819262	-0.3089951351284981	0.2098116092383861	0.0135805271565914	0.1369402339705061	-3.236167434813808	0.9218177750369704	-2.582906947163792	0.0397376456143661	2.265011845547349	0.0397376456143661	0.2697043038602231	-0.3111965918611048	-3.7904178725101474	-0.807793697196999	-0.2739495198616737	-0.6653068298851395	-0.9001212158992189	-0.2739495198616737	0.0257877446711063	0.01449606847018	0.0007629487663507	0.0099183619022369	-0.0337224416434764	-0.0056458404287695	-0.0123598100617527	-0.0361638851463794	-0.0148012535646557	-0.0007629534229636	-0.0096131861209869	0.007171737961471	-1.4280875999688192
0.004751999999999999	-0.5226214416325092	-0.40054926648736	-0.133516383357346	-0.2784770913422107	-0.3089951351284981	0.2555886749178171	0.0114442640915513	-0.0978139411203926	-2.6477734210516246	1.3140805306832704	-1.9471143186115116	0.2781598813214714	2.265011845547349	-0.83447721864502	0.0622396982454631	-0.4356753552299608	-3.7904178725101474	-0.9734950332467208	-0.2739495198616737	-0.7435782918898326	-0.3522209818663668	-0.2739495198616737	0.0175478719174861	-0.0062562013044953	-0.0224307645112276	-0.0108339078724384	-0.0035095773637294	-0.0096131861209869	-0.0175478775054216	-0.0221255831420421	-0.0007629534229636	-0.0032043969258666	0.0221255794167518	0.0218203999102115	-1.388961904120336
0.005751999999999999	-0.5302509292960167	-0.3929197788238525	-0.1487754052504897	-0.3776607336476445	-0.3242541570216417	0.2327001420781016	0.0141908880323171	0.097814538122023	-2.4516419235212084	0.8825914994723405	-0.9139512972140552	0.1192117241834012	2.185537766978314	-0.1986845900927392	0.1037326193684151	-0.1037319862463448	-3.914693748129281	-0.9320696992342904	-1.0566641399086052	-0.5870353678804463	0.0391363281570988	-0.2739495198616737	0.0013733096420764	-0.0184634178876876	0.0004577683284878	0.0007629487663507	-0.0215152241289615	-0.0001525925472378	-0.0163271557539701	-0.0001525925472378	0.01449606847018	-0.0007629534229636	0.0135805271565914	0.01449606847018	-1.3107105124233698
0.0067519999999999985	-0.4921033978462219	-0.40054926648736	-0.1411458943039178	-0.3624017117545008	-0.3700312227010727	0.1869230763986706	0.0129701662808656	0.1369402339705061	-2.2947368212626884	0.5687812949553006	-1.4702698471973008	-0.3576327472308094	2.344485924116384	-0.5960549829379147	0.1452255404913671	-0.4356753552299608	-4.163245752203864	-1.0149203672591511	-0.5870353678804463	-1.2132070639179915	0.2739507141711783	-0.6653068298851395	-0.004425118677318	-0.022735945880413	-0.0022888556122779	-0.009308005683124	-0.0126649904996156	-0.0126649904996156	-0.0205996818840503	-0.0318913571536541	0.0273136459290981	-0.0135805318132042	0.0019836705178022	0.0135805271565914	-1.2324591207264035
0.0077519999999999985	-0.4997328855097294	-0.4158082883805036	-0.1869229599833488	-0.3318836679682135	-0.2861066022887826	0.1564050326123833	0.0157167911529541	-0.215191028665842	-2.765452128038248	0.7649126727784505	-0.9934253757830902	0.5960561955976118	2.503434081254454	-0.3576327472308094	0.4771689094749831	-0.1452249073692968	-4.204670959798136	-0.8906443652218599	-0.3522209818663668	-0.9001212158992189	0.0391363281570988	-0.0391351338475942	-0.0077821034938097	-0.0080872839316725	-0.0148012535646557	0.0123598054051399	-0.0263981111347675	0.0209048576653003	-0.0102235469967126	-0.0151064340025186	0.0221255794167518	-0.0083924643695354	0.0080872792750597	0.0135805271565914	-0.9194535539385384
